<svg width="21" height="20" viewBox="0 0 21 20" fill="none" xmlns="http://www.w3.org/2000/svg">
<path fill-rule="evenodd" clip-rule="evenodd" d="M10.3333 18.6667C14.9358 18.6667 18.6667 14.9358 18.6667 10.3333C18.6667 5.73083 14.9358 2 10.3333 2C5.73083 2 2 5.73083 2 10.3333C2 14.9358 5.73083 18.6667 10.3333 18.6667ZM15.295 10.9583H12.7542C12.6405 11.3981 12.4091 11.7985 12.085 12.1167L13.355 14.3167C13.8857 13.9143 14.3307 13.41 14.6639 12.8333C14.997 12.2566 15.2116 11.6191 15.295 10.9583ZM12.2733 14.9433L11.0025 12.7433C10.5647 12.865 10.102 12.865 9.66417 12.7433L8.39333 14.9433C9.00756 15.2013 9.66714 15.3339 10.3333 15.3333C11.0208 15.3333 11.6767 15.1942 12.2733 14.9433ZM7.31167 14.3175L8.58167 12.1175C8.2571 11.7992 8.02546 11.3985 7.91167 10.9583H5.37167C5.45507 11.6191 5.66964 12.2566 6.00278 12.8333C6.33592 13.41 6.78093 13.9151 7.31167 14.3175ZM15.295 9.7075H12.7542C12.6405 9.26777 12.4091 8.86732 12.085 8.54917L13.355 6.34917C13.8857 6.75153 14.3307 7.25586 14.6639 7.83257C14.997 8.40928 15.2116 9.04673 15.295 9.7075ZM12.2733 5.7225C11.659 5.46484 10.9995 5.33253 10.3333 5.33333C9.64583 5.33333 8.99 5.4725 8.39333 5.72333L9.66417 7.92333C10.102 7.80171 10.5647 7.80171 11.0025 7.92333L12.2733 5.7225ZM8.58167 8.55L7.31167 6.35C6.78093 6.75236 6.33592 7.2567 6.00278 7.8334C5.66964 8.41011 5.45507 9.04756 5.37167 9.70833H7.9125C8.0275 9.2625 8.2625 8.86417 8.58167 8.55Z" fill="#F93822"/>
</svg>
