<svg width="23" height="22" viewBox="0 0 23 22" fill="none" xmlns="http://www.w3.org/2000/svg">
<path d="M17.7196 9.36794L17.4195 8.58445L18.9699 8.001C18.203 6.23398 16.8361 4.81703 15.1191 3.95019L14.4523 5.43382L13.6855 5.08375L14.3523 3.58345C13.4187 3.21671 12.4019 3 11.335 3C10.4515 3 9.60132 3.18337 8.80116 3.41675L9.36794 4.95039L8.58445 5.25045L8.001 3.70014C6.23398 4.46696 4.81703 5.8339 3.95019 7.55091L5.43382 8.21771L5.08375 8.98453L3.58345 8.31773C3.21671 9.25125 3 10.2681 3 11.335C3 12.2185 3.18337 13.0687 3.41675 13.8688L4.95039 13.3021L5.25045 14.0856L3.70014 14.669C4.46696 16.436 5.8339 17.853 7.55091 18.7198L8.21771 17.2362L8.98453 17.5863L8.31773 19.0865C9.25125 19.4533 10.2681 19.67 11.335 19.67C12.2185 19.67 13.0687 19.4866 13.8688 19.2533L13.3021 17.7196L14.0856 17.4195L14.669 18.9699C16.436 18.203 17.853 16.8361 18.7198 15.1191L17.2362 14.4523L17.5863 13.6855L19.0865 14.3523C19.4533 13.4187 19.67 12.4019 19.67 11.335C19.67 10.4515 19.4866 9.60132 19.2533 8.80116L17.7196 9.36794ZM13.2521 15.9526C10.7015 17.0028 7.76762 15.8026 6.71741 13.2521C5.6672 10.7015 6.86744 7.76762 9.41795 6.71741C11.9685 5.6672 14.9024 6.86744 15.9526 9.41795C16.2058 10.0242 16.3367 10.6744 16.3379 11.3314C16.3391 11.9883 16.2106 12.6391 15.9597 13.2462C15.7088 13.8534 15.3404 14.405 14.8758 14.8694C14.4111 15.3339 13.8593 15.702 13.2521 15.9526Z" fill="#111111"/>
</svg>
