<svg width="19" height="18" viewBox="0 0 19 18" fill="none" xmlns="http://www.w3.org/2000/svg">
<path d="M10.2344 12.4751C10.2344 12.587 10.1899 12.6943 10.1108 12.7734C10.0317 12.8525 9.92439 12.897 9.8125 12.897C9.55143 12.897 9.30105 12.7933 9.11644 12.6087C8.93184 12.424 8.82813 12.1737 8.82813 11.9126V9.1001C8.82813 9.0628 8.81331 9.02703 8.78694 9.00066C8.76057 8.97429 8.7248 8.95947 8.6875 8.95947C8.57561 8.95947 8.46831 8.91502 8.38919 8.83591C8.31008 8.75679 8.26563 8.64949 8.26563 8.5376C8.26563 8.42571 8.31008 8.3184 8.38919 8.23929C8.46831 8.16017 8.57561 8.11572 8.6875 8.11572C8.94858 8.11572 9.19895 8.21943 9.38356 8.40404C9.56817 8.58864 9.67188 8.83902 9.67188 9.1001V11.9126C9.67188 11.9499 9.68669 11.9857 9.71307 12.012C9.73944 12.0384 9.77521 12.0532 9.8125 12.0532C9.92439 12.0532 10.0317 12.0977 10.1108 12.1768C10.1899 12.2559 10.2344 12.3632 10.2344 12.4751ZM8.96875 6.70947C9.10782 6.70947 9.24376 6.66823 9.35939 6.59097C9.47502 6.51371 9.56514 6.4039 9.61836 6.27542C9.67157 6.14694 9.6855 6.00557 9.65837 5.86917C9.63124 5.73278 9.56427 5.6075 9.46594 5.50916C9.3676 5.41083 9.24232 5.34386 9.10593 5.31673C8.96953 5.2896 8.82816 5.30353 8.69968 5.35674C8.5712 5.40996 8.46139 5.50008 8.38413 5.61571C8.30687 5.73134 8.26563 5.86728 8.26563 6.00635C8.26563 6.19283 8.33971 6.37167 8.47157 6.50353C8.60343 6.63539 8.78227 6.70947 8.96875 6.70947ZM16.4219 9.1001C16.4219 10.5186 16.0013 11.9052 15.2132 13.0846C14.4251 14.264 13.305 15.1832 11.9946 15.726C10.6841 16.2689 9.24205 16.4109 7.85084 16.1342C6.45963 15.8574 5.18173 15.1744 4.17872 14.1714C3.17572 13.1684 2.49266 11.8905 2.21593 10.4993C1.93921 9.10805 2.08123 7.66603 2.62405 6.35554C3.16688 5.04505 4.08611 3.92496 5.26552 3.1369C6.44493 2.34885 7.83154 1.92822 9.25 1.92822C11.1514 1.93046 12.9743 2.68678 14.3188 4.03128C15.6633 5.37579 16.4196 7.19868 16.4219 9.1001ZM15.5781 9.1001C15.5781 7.84851 15.207 6.62503 14.5116 5.58438C13.8163 4.54372 12.828 3.73263 11.6717 3.25367C10.5154 2.77471 9.24298 2.64939 8.01545 2.89357C6.78791 3.13774 5.66035 3.74043 4.77534 4.62544C3.89034 5.51044 3.28764 6.63801 3.04347 7.86554C2.7993 9.09308 2.92462 10.3655 3.40358 11.5218C3.88254 12.6781 4.69363 13.6664 5.73429 14.3617C6.77494 15.0571 7.99842 15.4282 9.25 15.4282C10.9278 15.4264 12.5363 14.7591 13.7226 13.5727C14.909 12.3864 15.5763 10.7778 15.5781 9.1001Z" fill="#747474"/>
</svg>
